<svg width="33" height="41" viewBox="0 0 33 41" fill="none" xmlns="http://www.w3.org/2000/svg">
    <path d="M32.5 12.5L20.5 0.5V8.5C20.5 10.7091 22.2909 12.5 24.5 12.5H32.5Z" fill="#E7E7E7"/>
    <path d="M21.1092 21.2608C21.1092 20.6995 21.1091 20.3138 21.085 20.015C21.0673 19.7961 21.0382 19.6533 21.0008 19.5476L20.9609 19.4531C20.8465 19.226 20.6725 19.036 20.4588 18.9035L20.3654 18.8508C20.2532 18.793 20.0977 18.7492 19.8091 18.7253C19.5136 18.7009 19.1322 18.7001 18.5773 18.7001H14.4228C13.8678 18.7001 13.4865 18.7009 13.1911 18.7253C12.9747 18.7432 12.8334 18.7719 12.7289 18.8097L12.6355 18.8508C12.4111 18.9665 12.223 19.142 12.092 19.3579L12.04 19.4531C11.9828 19.5666 11.9395 19.7233 11.9159 20.015C11.8917 20.3138 11.8909 20.6995 11.8909 21.2608V28.7668L12.7482 28.1364L12.8316 28.0852C13.0326 27.9839 13.2773 28.0075 13.4571 28.153L14.7317 29.1837L16.1567 28.1364L16.2365 28.0866C16.4297 27.9878 16.665 28.0045 16.8442 28.1364L18.2685 29.1837L19.5437 28.153L19.6243 28.0981C19.8204 27.9876 20.0657 27.9994 20.252 28.1364L21.1092 28.7668V21.2608ZM22.2782 29.9274C22.2782 30.1497 22.1545 30.3531 21.9587 30.454C21.7874 30.5421 21.5862 30.5386 21.4195 30.4489L21.3503 30.4056L19.9253 29.3568L18.6508 30.3891C18.4453 30.5553 18.1547 30.5621 17.9418 30.4056L16.4997 29.3446L15.0583 30.4056C14.8455 30.5619 14.5555 30.5552 14.3501 30.3891L13.0748 29.3568L11.6506 30.4056C11.4728 30.5363 11.2373 30.5548 11.0415 30.454C10.8457 30.3531 10.7227 30.1496 10.7227 29.9274V21.2608C10.7227 21.2536 10.7227 21.2464 10.7227 21.2393C10.7227 20.7073 10.7226 20.2724 10.7512 19.9191C10.7807 19.5541 10.8436 19.2243 10.9987 18.9165L11.0964 18.7405C11.3396 18.3393 11.688 18.0125 12.1049 17.7977L12.2204 17.7429C12.4916 17.6253 12.7806 17.5735 13.0962 17.5474C13.4456 17.5185 13.8756 17.5185 14.4016 17.5186C14.4087 17.5186 14.4157 17.5186 14.4228 17.5186H18.5773C18.5845 17.5186 18.5918 17.5186 18.5989 17.5186C19.1248 17.5185 19.5553 17.5185 19.9046 17.5474C20.2653 17.5772 20.591 17.641 20.8953 17.7977L21.07 17.8965C21.4666 18.1425 21.7898 18.4949 22.0022 18.9165L22.0557 19.0333C22.172 19.3076 22.2239 19.5998 22.2497 19.9191C22.2782 20.2724 22.2782 20.7074 22.2782 21.2394C22.2782 21.2465 22.2782 21.2536 22.2782 21.2608V29.9274Z" fill="white"/>
    <path fill-rule="evenodd" clip-rule="evenodd" d="M4.5 40.5H28.5C30.7091 40.5 32.5 38.7091 32.5 36.5V12.5H24.5C22.2909 12.5 20.5 10.7091 20.5 8.5V0.5H4.5C2.29086 0.5 0.5 2.29086 0.5 4.5V36.5C0.5 38.7091 2.29086 40.5 4.5 40.5ZM21.9587 30.454C22.1545 30.3531 22.2782 30.1497 22.2782 29.9274V21.2608V21.2394C22.2782 20.7074 22.2782 20.2724 22.2497 19.9191C22.2239 19.5998 22.172 19.3076 22.0557 19.0333L22.0022 18.9165C21.7898 18.4949 21.4666 18.1425 21.07 17.8965L20.8953 17.7977C20.591 17.641 20.2653 17.5772 19.9046 17.5474C19.5553 17.5185 19.1248 17.5185 18.5989 17.5186H18.5773H14.4228H14.4016C13.8756 17.5185 13.4456 17.5185 13.0962 17.5474C12.7806 17.5735 12.4916 17.6253 12.2204 17.7429L12.1049 17.7977C11.688 18.0125 11.3396 18.3393 11.0964 18.7405L10.9987 18.9165C10.8436 19.2243 10.7807 19.5541 10.7512 19.9191C10.7226 20.2724 10.7227 20.7073 10.7227 21.2393V21.2608V29.9274C10.7227 30.1496 10.8457 30.3531 11.0415 30.454C11.2373 30.5548 11.4728 30.5363 11.6506 30.4056L13.0748 29.3568L14.3501 30.3891C14.5555 30.5552 14.8455 30.5619 15.0583 30.4056L16.4997 29.3446L17.9418 30.4056C18.1547 30.5621 18.4453 30.5553 18.6508 30.3891L19.9253 29.3568L21.3503 30.4056L21.4195 30.4489C21.5862 30.5386 21.7874 30.5421 21.9587 30.454Z" fill="#D0D0D0"/>
    <path d="M21.1092 21.2608C21.1092 20.6995 21.1091 20.3138 21.085 20.015C21.0673 19.7961 21.0382 19.6533 21.0008 19.5476L20.9609 19.4531C20.8465 19.226 20.6725 19.036 20.4588 18.9035L20.3654 18.8508C20.2532 18.793 20.0977 18.7492 19.8091 18.7253C19.5136 18.7009 19.1322 18.7001 18.5773 18.7001H14.4228C13.8678 18.7001 13.4865 18.7009 13.1911 18.7253C12.9747 18.7432 12.8334 18.7719 12.7289 18.8097L12.6355 18.8508C12.4111 18.9665 12.223 19.142 12.092 19.3579L12.04 19.4531C11.9828 19.5666 11.9395 19.7233 11.9159 20.015C11.8917 20.3138 11.8909 20.6995 11.8909 21.2608V28.7668L12.7482 28.1364L12.8316 28.0852C13.0326 27.9839 13.2773 28.0075 13.4571 28.153L14.7317 29.1837L16.1567 28.1364L16.2365 28.0866C16.4297 27.9878 16.665 28.0045 16.8442 28.1364L18.2685 29.1837L19.5437 28.153L19.6243 28.0981C19.8204 27.9876 20.0657 27.9994 20.252 28.1364L21.1092 28.7668V21.2608Z" fill="#D0D0D0"/>
</svg>
