<svg width="19" height="18" viewBox="0 0 19 18" fill="none" xmlns="http://www.w3.org/2000/svg">
    <path d="M8.65659 2.68682H5.31685C3.98083 2.68682 3.31281 2.68682 2.80252 2.94683C2.35366 3.17554 1.98872 3.54048 1.76001 3.98935C1.5 4.49964 1.5 5.16765 1.5 6.50367V13.1832C1.5 14.5192 1.5 15.1872 1.76001 15.6975C1.98872 16.1463 2.35366 16.5113 2.80252 16.74C3.31281 17 3.98083 17 5.31685 17H11.9963C13.3324 17 14.0004 17 14.5107 16.74C14.9595 16.5113 15.3245 16.1463 15.5532 15.6975C15.8132 15.1872 15.8132 14.5192 15.8132 13.1832V9.84341M6.27104 12.2289H7.60259C7.99158 12.2289 8.18607 12.2289 8.3691 12.185C8.53138 12.146 8.68651 12.0818 8.8288 11.9946C8.98929 11.8962 9.12682 11.7587 9.40187 11.4837L17.0059 3.87959C17.6647 3.22084 17.6647 2.15281 17.0059 1.49406C16.3472 0.835314 15.2792 0.835313 14.6204 1.49406L7.01633 9.09813C6.74127 9.37318 6.60374 9.51071 6.50539 9.6712C6.4182 9.81349 6.35394 9.96862 6.31498 10.1309C6.27104 10.3139 6.27104 10.5084 6.27104 10.8974V12.2289Z" stroke="#737373" stroke-width="1.5" stroke-linecap="round" stroke-linejoin="round"/>
</svg>
