<svg width="16" height="16" viewBox="0 0 16 16" fill="none" xmlns="http://www.w3.org/2000/svg">
    <path d="M12.4369 8.86284L11.5079 4.21792C11.456 3.95845 11.43 3.82871 11.3669 3.72306C11.3112 3.62966 11.2348 3.55022 11.1437 3.4908C11.0406 3.42359 10.912 3.39255 10.6548 3.33046L1 1M1 1L3.33046 10.6548C3.39255 10.912 3.42359 11.0406 3.4908 11.1437C3.55022 11.2348 3.62966 11.3112 3.72306 11.3669C3.82871 11.43 3.95845 11.456 4.21792 11.5079L8.86284 12.4369M1 1L6.4225 6.4225M11.1012 14.4874L14.4874 11.1012C14.7704 10.8181 14.912 10.6765 14.965 10.5133C15.0117 10.3698 15.0117 10.2151 14.965 10.0716C14.912 9.90836 14.7704 9.76682 14.4874 9.48374L13.9604 8.95675C13.6773 8.67367 13.5358 8.53214 13.3726 8.47911C13.229 8.43246 13.0743 8.43246 12.9308 8.47911C12.7676 8.53214 12.626 8.67367 12.343 8.95675L8.95675 12.343C8.67367 12.626 8.53214 12.7676 8.47911 12.9308C8.43246 13.0743 8.43246 13.229 8.47911 13.3726C8.53214 13.5358 8.67367 13.6773 8.95675 13.9604L9.48374 14.4874C9.76682 14.7704 9.90836 14.912 10.0716 14.965C10.2151 15.0117 10.3698 15.0117 10.5133 14.965C10.6765 14.912 10.8181 14.7704 11.1012 14.4874ZM8.86284 7.43324C8.86284 8.22279 8.22279 8.86284 7.43324 8.86284C6.64369 8.86284 6.00363 8.22279 6.00363 7.43324C6.00363 6.64369 6.64369 6.00363 7.43324 6.00363C8.22279 6.00363 8.86284 6.64369 8.86284 7.43324Z" stroke="#5C5C5C" stroke-width="1.5" stroke-linecap="round" stroke-linejoin="round"/>
</svg>
