<svg width="16" height="18" viewBox="0 0 16 18" fill="none" xmlns="http://www.w3.org/2000/svg">
    <path d="M11.1111 3.09255L11.1111 14.9074M6.44444 2.24863L6.44444 15.7514M1 9H15M1 3.92734L1 14.0727C1 15.2238 1 15.7994 1.21882 16.1983C1.41069 16.5481 1.7126 16.8109 2.06893 16.9382C2.47532 17.0835 2.99315 16.9586 4.0288 16.7089L13.051 14.5335C13.7465 14.3658 14.0942 14.2819 14.3537 14.0791C14.5827 13.9001 14.7624 13.6569 14.8738 13.3756C15 13.0567 15 12.6702 15 11.8972V6.10278C15 5.3298 15 4.94332 14.8738 4.62438C14.7624 4.34307 14.5827 4.09991 14.3537 3.92095C14.0942 3.71806 13.7465 3.63422 13.051 3.46654L4.02881 1.2911C2.99315 1.04138 2.47532 0.91652 2.06893 1.06175C1.7126 1.18909 1.41069 1.45188 1.21882 1.80168C1 2.20063 1 2.7762 1 3.92734Z" stroke="#5C5C5C" stroke-width="1.5" stroke-linecap="round" stroke-linejoin="round"/>
</svg>
