<svg width="18" height="16" viewBox="0 0 18 16" fill="none" xmlns="http://www.w3.org/2000/svg">
    <path d="M7.30083 5.45853C7.43787 5.08287 7.70836 4.7661 8.0644 4.56433C8.42043 4.36256 8.83904 4.2888 9.24606 4.35612C9.65309 4.42345 10.0223 4.6275 10.2882 4.93215C10.5542 5.2368 10.6997 5.62238 10.6991 6.02061C10.6991 7.14477 8.95043 7.70685 8.95043 7.70685M8.97297 9.95685H8.98075M5.26665 1H12.7333C14.2268 1 14.9735 1 15.544 1.24524C16.0457 1.46095 16.4537 1.80516 16.7093 2.22852C17 2.70982 17 3.33988 17 4.6V8.875C17 9.92337 17 10.4476 16.797 10.861C16.5263 11.4124 16.0072 11.8504 15.3538 12.0787C14.8638 12.25 14.2425 12.25 13 12.25C12.5657 12.25 12.3485 12.25 12.1471 12.2901C11.8785 12.3436 11.6283 12.4492 11.4164 12.5984C11.2575 12.7103 11.1272 12.8569 10.8667 13.15L9.56887 14.61C9.37588 14.8271 9.27938 14.9357 9.16108 14.9745C9.05746 15.0085 8.94251 15.0085 8.83889 14.9745C8.72059 14.9357 8.62409 14.8271 8.4311 14.61L7.13332 13.15C6.87275 12.8569 6.74245 12.7103 6.58354 12.5984C6.37164 12.4492 6.12149 12.3436 5.85288 12.2901C5.65142 12.25 5.43428 12.25 4.99998 12.25C3.75749 12.25 3.13622 12.25 2.64616 12.0787C1.99275 11.8504 1.47362 11.4124 1.20297 10.861C0.999985 10.4476 0.999985 9.92337 0.999985 8.875V4.6C0.999985 3.33988 0.999985 2.70982 1.29063 2.22852C1.5463 1.80516 1.95424 1.46095 2.45601 1.24524C3.02644 1 3.77318 1 5.26665 1Z" stroke="#5C5C5C" stroke-width="1.5" stroke-linecap="round" stroke-linejoin="round"/>
</svg>
