<svg width="18" height="16" viewBox="0 0 18 16" fill="none" xmlns="http://www.w3.org/2000/svg">
    <path d="M14 15H4M13.16 12H4.84C3.49587 12 2.82381 12 2.31042 11.7233C1.85883 11.48 1.49168 11.0916 1.26158 10.614C1 10.071 1 9.36013 1 7.93846V5.06157C1 3.6399 1 2.92907 1.26158 2.38606C1.49168 1.90842 1.85883 1.52008 2.31042 1.27671C2.82381 1.00004 3.49587 1.00004 4.84 1.00004L13.16 1C14.5041 1 15.1762 1 15.6896 1.27668C16.1412 1.52005 16.5083 1.90838 16.7384 2.38602C17 2.92903 17 3.63987 17 5.06154V7.93846C17 9.36013 17 10.071 16.7384 10.614C16.5083 11.0916 16.1412 11.48 15.6896 11.7233C15.1762 12 14.5041 12 13.16 12ZM8.6215 8.31583L10.9335 6.82958C11.1041 6.71989 11.1894 6.66505 11.2189 6.59531C11.2446 6.53438 11.2446 6.46562 11.2189 6.40469C11.1894 6.33495 11.1041 6.28011 10.9335 6.17042L8.6215 4.68417C8.42487 4.55776 8.32656 4.49456 8.24526 4.50037C8.1744 4.50543 8.10924 4.541 8.06667 4.59787C8.01782 4.66311 8.01782 4.77999 8.01782 5.01375V7.98625C8.01782 8.22001 8.01782 8.33688 8.06667 8.40213C8.10924 8.459 8.1744 8.49457 8.24526 8.49963C8.32656 8.50544 8.42487 8.44224 8.6215 8.31583Z" stroke="#5C5C5C" stroke-width="1.5" stroke-linecap="round" stroke-linejoin="round"/>
</svg>
