<svg width="18" height="16" viewBox="0 0 18 16" fill="none" xmlns="http://www.w3.org/2000/svg">
    <path d="M9 14.5H3.56C2.66392 14.5 2.21587 14.5 1.87362 14.3229C1.57256 14.1671 1.32779 13.9185 1.17439 13.6127C1 13.2651 1 12.8101 1 11.9V4.1C1 3.18991 1 2.73487 1.17439 2.38727C1.32779 2.0815 1.57256 1.83291 1.87362 1.67711C2.21587 1.5 2.66392 1.5 3.56 1.5H3.88C5.67217 1.5 6.56825 1.5 7.25277 1.85423C7.85489 2.16582 8.34443 2.663 8.65122 3.27453C9 3.96974 9 4.87983 9 6.7M9 14.5V6.7M9 14.5H14.44C15.3361 14.5 15.7841 14.5 16.1264 14.3229C16.4274 14.1671 16.6722 13.9185 16.8256 13.6127C17 13.2651 17 12.8101 17 11.9V4.1C17 3.18991 17 2.73487 16.8256 2.38727C16.6722 2.0815 16.4274 1.83291 16.1264 1.67711C15.7841 1.5 15.3361 1.5 14.44 1.5H14.12C12.3278 1.5 11.4317 1.5 10.7472 1.85423C10.1451 2.16582 9.65557 2.663 9.34878 3.27453C9 3.96974 9 4.87983 9 6.7" stroke="#5C5C5C" stroke-width="1.5" stroke-linecap="round" stroke-linejoin="round"/>
</svg>
