<svg width="18" height="18" viewBox="0 0 18 18" fill="none" xmlns="http://www.w3.org/2000/svg">
    <path d="M10.6842 17H7.31578M14.0526 6.05263C14.0526 4.71259 13.5203 3.42743 12.5727 2.47988C11.6252 1.53233 10.34 1 8.99999 1C7.65995 1 6.3748 1.53233 5.42724 2.47988C4.47969 3.42743 3.94736 4.71259 3.94736 6.05263C3.94736 8.65489 3.29092 10.4366 2.55761 11.6151C1.93905 12.6092 1.62977 13.1062 1.64111 13.2448C1.65367 13.3984 1.68619 13.4569 1.80991 13.5487C1.92164 13.6316 2.42533 13.6316 3.43271 13.6316H14.5673C15.5747 13.6316 16.0783 13.6316 16.1901 13.5487C16.3138 13.4569 16.3463 13.3984 16.3589 13.2448C16.3702 13.1062 16.0609 12.6092 15.4424 11.6151C14.7091 10.4366 14.0526 8.65489 14.0526 6.05263Z" stroke="#5C5C5C" stroke-width="1.5" stroke-linecap="round" stroke-linejoin="round"/>
</svg>
