<svg width="20" height="20" viewBox="0 0 20 20" fill="none" xmlns="http://www.w3.org/2000/svg">
    <path d="M4.65304 15.9507C5.1397 14.8042 6.27594 14 7.6 14H12.4C13.7241 14 14.8603 14.8042 15.347 15.9507M13.2 8C13.2 9.76731 11.7673 11.2 10 11.2C8.23269 11.2 6.8 9.76731 6.8 8C6.8 6.23269 8.23269 4.8 10 4.8C11.7673 4.8 13.2 6.23269 13.2 8ZM18 10C18 14.4183 14.4183 18 10 18C5.58172 18 2 14.4183 2 10C2 5.58172 5.58172 2 10 2C14.4183 2 18 5.58172 18 10Z" stroke="#5C5C5C" stroke-width="1.5" stroke-linecap="round" stroke-linejoin="round"/>
</svg>
