<svg width="20" height="20" viewBox="0 0 20 20" fill="none" xmlns="http://www.w3.org/2000/svg">
    <path d="M18.75 7.375H1.25M18.75 8.25V5.8C18.75 4.81991 18.75 4.32986 18.5593 3.95552C18.3915 3.62623 18.1238 3.35852 17.7945 3.19074C17.4201 3 16.9301 3 15.95 3H4.05C3.06991 3 2.57986 3 2.20552 3.19074C1.87623 3.35852 1.60852 3.62623 1.44074 3.95552C1.25 4.32986 1.25 4.81991 1.25 5.8V12.45C1.25 13.4301 1.25 13.9201 1.44074 14.2945C1.60852 14.6238 1.87623 14.8915 2.20552 15.0593C2.57986 15.25 3.06991 15.25 4.05 15.25H9.5625M15.25 17C15.25 17 17.875 15.7488 17.875 13.8721V11.6825L15.9609 10.9986C15.501 10.8338 14.998 10.8338 14.5381 10.9986L12.625 11.6825V13.8721C12.625 15.7488 15.25 17 15.25 17Z" stroke="#5C5C5C" stroke-width="1.5" stroke-linecap="round" stroke-linejoin="round"/>
</svg>
