<svg width="33" height="41" viewBox="0 0 33 41" fill="none" xmlns="http://www.w3.org/2000/svg">
    <path d="M32.5 12.5L20.5 0.5V8.5C20.5 10.7091 22.2909 12.5 24.5 12.5H32.5Z" fill="#E7E7E7"/>
    <path d="M19.1 29.6299C19.1 29.0489 19.0999 28.6436 19.0773 28.3263C19.0607 28.0925 19.0327 27.9312 18.9945 27.8062L18.9531 27.6919C18.7816 27.2942 18.4705 26.9639 18.0719 26.7588L17.8953 26.6786C17.7438 26.6183 17.5483 26.5781 17.2211 26.5566C16.8886 26.5348 16.4645 26.5342 15.8602 26.5342H13.9398C13.3355 26.5342 12.9114 26.5348 12.5789 26.5566C12.3336 26.5727 12.1623 26.5991 12.0281 26.6369L11.9047 26.6786C11.482 26.8467 11.1393 27.1486 10.9289 27.526L10.8469 27.6919C10.7865 27.832 10.7448 28.0147 10.7227 28.3263C10.7001 28.6436 10.7 29.0489 10.7 29.6299C10.7 29.9573 10.4314 30.2227 10.1 30.2227C9.76863 30.2227 9.5 29.9573 9.5 29.6299C9.5 29.6217 9.5 29.6134 9.5 29.6052C9.49999 29.0522 9.49999 28.6061 9.52578 28.243C9.55236 27.8689 9.60852 27.5391 9.74297 27.2273L9.80703 27.0884C10.1444 26.4042 10.733 25.8665 11.4563 25.5787L11.5766 25.5347C11.8601 25.4392 12.1611 25.3956 12.4992 25.3734C12.8762 25.3487 13.3405 25.3487 13.9193 25.3487C13.9261 25.3487 13.933 25.3487 13.9398 25.3487H15.8602C15.867 25.3487 15.8739 25.3487 15.8807 25.3487C16.4595 25.3487 16.9238 25.3487 17.3008 25.3734C17.6871 25.3988 18.025 25.452 18.3438 25.5787L18.4867 25.6397C19.1915 25.9603 19.7537 26.5239 20.057 27.2273L20.1039 27.3454C20.205 27.6224 20.251 27.9158 20.2742 28.243C20.3 28.606 20.3 29.0521 20.3 29.6051C20.3 29.6134 20.3 29.6216 20.3 29.6299C20.3 29.9573 20.0314 30.2227 19.7 30.2227C19.3686 30.2227 19.1 29.9573 19.1 29.6299ZM22.3 29.6299V28.4004C22.3 27.5971 21.7623 26.8981 20.9914 26.64L20.8344 26.5944L20.7758 26.5767C20.4896 26.4747 20.3222 26.1729 20.3977 25.8751C20.4731 25.5774 20.7646 25.3889 21.0656 25.4321L21.1258 25.4444L21.3758 25.517C22.6036 25.9286 23.5 27.0558 23.5 28.4004V29.6299C23.5 29.9573 23.2314 30.2227 22.9 30.2227C22.5686 30.2227 22.3 29.9573 22.3 29.6299ZM16.8602 21.0244C16.8602 20.0094 15.9985 19.1581 14.9 19.1581C13.8015 19.1581 12.9398 20.0094 12.9398 21.0244C12.9399 22.0392 13.8015 22.8906 14.9 22.8906C15.9985 22.8906 16.8601 22.0392 16.8602 21.0244ZM19.7398 21.0244C19.7398 20.2521 19.2446 19.5771 18.5203 19.2955C18.212 19.1756 18.0607 18.8314 18.182 18.5268C18.3035 18.2225 18.6512 18.073 18.9594 18.1926C20.1115 18.6405 20.9398 19.7328 20.9398 21.0244C20.9398 22.3158 20.1114 23.4082 18.9594 23.8561C18.6511 23.9757 18.3033 23.8256 18.182 23.5211C18.0607 23.2165 18.212 22.8723 18.5203 22.7524C19.2445 22.4708 19.7398 21.7965 19.7398 21.0244ZM18.0602 21.0244C18.0601 22.7252 16.6291 24.076 14.9 24.076C13.1709 24.076 11.7399 22.7252 11.7398 21.0244C11.7398 19.3234 13.1708 17.9727 14.9 17.9727C16.6292 17.9727 18.0602 19.3234 18.0602 21.0244Z" fill="white"/>
    <path fill-rule="evenodd" clip-rule="evenodd" d="M4.5 40.5H28.5C30.7091 40.5 32.5 38.7091 32.5 36.5V12.5H24.5C22.2909 12.5 20.5 10.7091 20.5 8.5V0.5H4.5C2.29086 0.5 0.5 2.29086 0.5 4.5V36.5C0.5 38.7091 2.29086 40.5 4.5 40.5ZM19.0773 28.3263C19.0999 28.6436 19.1 29.0489 19.1 29.6299C19.1 29.9573 19.3686 30.2227 19.7 30.2227C20.0314 30.2227 20.3 29.9573 20.3 29.6299V29.6051C20.3 29.0521 20.3 28.606 20.2742 28.243C20.251 27.9158 20.205 27.6224 20.1039 27.3454L20.057 27.2273C19.7537 26.5239 19.1915 25.9603 18.4867 25.6397L18.3438 25.5787C18.025 25.452 17.6871 25.3988 17.3008 25.3734C16.9238 25.3487 16.4595 25.3487 15.8807 25.3487H15.8602H13.9398H13.9193C13.3405 25.3487 12.8762 25.3487 12.4992 25.3734C12.1611 25.3956 11.8601 25.4392 11.5766 25.5347L11.4563 25.5787C10.733 25.8665 10.1444 26.4042 9.80703 27.0884L9.74297 27.2273C9.60852 27.5391 9.55236 27.8689 9.52578 28.243C9.49999 28.6061 9.49999 29.0522 9.5 29.6052V29.6299C9.5 29.9573 9.76863 30.2227 10.1 30.2227C10.4314 30.2227 10.7 29.9573 10.7 29.6299C10.7 29.0489 10.7001 28.6436 10.7227 28.3263C10.7448 28.0147 10.7865 27.832 10.8469 27.6919L10.9289 27.526C11.1393 27.1486 11.482 26.8467 11.9047 26.6786L12.0281 26.6369C12.1623 26.5991 12.3336 26.5727 12.5789 26.5566C12.9114 26.5348 13.3355 26.5342 13.9398 26.5342H15.8602C16.4645 26.5342 16.8886 26.5348 17.2211 26.5566C17.5483 26.5781 17.7438 26.6183 17.8953 26.6786L18.0719 26.7588C18.4705 26.9639 18.7816 27.2942 18.9531 27.6919L18.9945 27.8062C19.0327 27.9312 19.0607 28.0925 19.0773 28.3263ZM22.3 28.4004V29.6299C22.3 29.9573 22.5686 30.2227 22.9 30.2227C23.2314 30.2227 23.5 29.9573 23.5 29.6299V28.4004C23.5 27.0558 22.6036 25.9286 21.3758 25.517L21.1258 25.4444L21.0656 25.4321C20.7646 25.3889 20.4731 25.5774 20.3977 25.8751C20.3222 26.1729 20.4896 26.4747 20.7758 26.5767L20.8344 26.5944L20.9914 26.64C21.7623 26.8981 22.3 27.5971 22.3 28.4004ZM18.5203 19.2955C19.2446 19.5771 19.7398 20.2521 19.7398 21.0244C19.7398 21.7965 19.2445 22.4708 18.5203 22.7524C18.212 22.8723 18.0607 23.2165 18.182 23.5211C18.3033 23.8256 18.6511 23.9757 18.9594 23.8561C20.1114 23.4082 20.9398 22.3158 20.9398 21.0244C20.9398 19.7328 20.1115 18.6405 18.9594 18.1926C18.6512 18.073 18.3035 18.2225 18.182 18.5268C18.0607 18.8314 18.212 19.1756 18.5203 19.2955ZM14.9 24.076C16.6291 24.076 18.0601 22.7252 18.0602 21.0244C18.0602 19.3234 16.6292 17.9727 14.9 17.9727C13.1708 17.9727 11.7398 19.3234 11.7398 21.0244C11.7399 22.7252 13.1709 24.076 14.9 24.076Z" fill="#D0D0D0"/>
    <path d="M16.8602 21.0244C16.8602 20.0094 15.9985 19.1581 14.9 19.1581C13.8015 19.1581 12.9398 20.0094 12.9398 21.0244C12.9399 22.0392 13.8015 22.8906 14.9 22.8906C15.9985 22.8906 16.8601 22.0392 16.8602 21.0244Z" fill="#D0D0D0"/>
</svg>
