<svg width="20" height="20" viewBox="0 0 20 20" fill="none" xmlns="http://www.w3.org/2000/svg">
    <path d="M14.4 9.2L13.7724 7.94487C13.56 7.52008 13.4538 7.30769 13.312 7.12364C13.1861 6.96033 13.0397 6.81391 12.8764 6.68802C12.6923 6.54615 12.4799 6.43996 12.0551 6.22757L10.8 5.6L12.0551 4.97243C12.4799 4.76004 12.6923 4.65385 12.8764 4.51198C13.0397 4.38609 13.1861 4.23968 13.312 4.07636C13.4538 3.89231 13.56 3.67992 13.7724 3.25513L14.4 2L15.0276 3.25513C15.24 3.67992 15.3462 3.89231 15.488 4.07636C15.6139 4.23967 15.7603 4.38609 15.9236 4.51198C16.1077 4.65385 16.3201 4.76004 16.7449 4.97243L18 5.6L16.7449 6.22757C16.3201 6.43996 16.1077 6.54615 15.9236 6.68802C15.7603 6.81391 15.6139 6.96033 15.488 7.12364C15.3462 7.30769 15.24 7.52008 15.0276 7.94487L14.4 9.2Z" stroke="#5C5C5C" stroke-width="1.5" stroke-linecap="round" stroke-linejoin="round"/>
    <path d="M7.6 18L6.6571 15.5485C6.43149 14.9619 6.31869 14.6686 6.14327 14.4219C5.9878 14.2032 5.79676 14.0122 5.57811 13.8567C5.33141 13.6813 5.03812 13.5685 4.45154 13.3429L2 12.4L4.45153 11.4571C5.03812 11.2315 5.33141 11.1187 5.57811 10.9433C5.79676 10.7878 5.9878 10.5968 6.14327 10.3781C6.31869 10.1314 6.43149 9.83812 6.6571 9.25153L7.6 6.8L8.5429 9.25154C8.76851 9.83812 8.88131 10.1314 9.05673 10.3781C9.2122 10.5968 9.40324 10.7878 9.62189 10.9433C9.86859 11.1187 10.1619 11.2315 10.7485 11.4571L13.2 12.4L10.7485 13.3429C10.1619 13.5685 9.86859 13.6813 9.62189 13.8567C9.40324 14.0122 9.2122 14.2032 9.05673 14.4219C8.88131 14.6686 8.76851 14.9619 8.5429 15.5485L7.6 18Z" stroke="#5C5C5C" stroke-width="1.5" stroke-linecap="round" stroke-linejoin="round"/>
</svg>
