<svg width="20" height="20" viewBox="0 0 20 20" fill="none" xmlns="http://www.w3.org/2000/svg">
    <path d="M18 17V15.4444C18 13.9948 16.9802 12.7767 15.6 12.4313M12.8 3.22615C13.9727 3.68767 14.8 4.80546 14.8 6.11111C14.8 7.41676 13.9727 8.53455 12.8 8.99608M14 17C14 15.5504 14 14.8256 13.7564 14.2539C13.4316 13.4916 12.8087 12.8859 12.0246 12.5702C11.4365 12.3333 10.691 12.3333 9.2 12.3333H6.8C5.30899 12.3333 4.56348 12.3333 3.97541 12.5702C3.19132 12.8859 2.56837 13.4916 2.24359 14.2539C2 14.8256 2 15.5504 2 17M11.2 6.11111C11.2 7.82933 9.76731 9.22222 8 9.22222C6.23269 9.22222 4.8 7.82933 4.8 6.11111C4.8 4.39289 6.23269 3 8 3C9.76731 3 11.2 4.39289 11.2 6.11111Z" stroke="#5C5C5C" stroke-width="1.5" stroke-linecap="round" stroke-linejoin="round"/>
</svg>
